HispaMaster-Black.ufo
<glyph name="four" format="2">
  <advance width="560"/>
  <unicode hex="0034"/>
  <outline>
    <contour>
      <point x="527" y="109" type="line"/>
      <point x="527" y="239" type="line"/>
      <point x="68" y="239" type="line"/>
      <point x="88" y="204" type="line"/>
      <point x="312" y="525" type="line"/>
      <point x="275" y="525" type="line"/>
      <point x="275" y="0" type="line"/>
      <point x="440" y="0" type="line"/>
      <point x="440" y="624" type="line"/>
      <point x="308" y="624" type="line"/>
      <point x="20" y="216" type="line"/>
      <point x="20" y="109" type="line"/>
    </contour>
  </outline>
</glyph>
<glyph name="six" format="2">
  <advance width="560"/>
  <unicode hex="0036"/>
  <outline>
    <contour>
      <point x="290" y="39" type="curve" smooth="yes"/>
      <point x="248" y="39"/>
      <point x="214" y="100"/>
      <point x="214" y="279" type="curve" smooth="yes"/>
      <point x="214" y="435"/>
      <point x="311" y="539"/>
      <point x="484" y="583" type="curve"/>
      <point x="478" y="640" type="line"/>
      <point x="216" y="620"/>
      <point x="24" y="459"/>
      <point x="24" y="252" type="curve" smooth="yes"/>
      <point x="24" y="79"/>
      <point x="129" y="-16"/>
      <point x="290" y="-16" type="curve" smooth="yes"/>
      <point x="420" y="-16"/>
      <point x="533" y="56"/>
      <point x="533" y="201" type="curve" smooth="yes"/>
      <point x="533" y="316"/>
      <point x="475" y="392"/>
      <point x="349" y="392" type="curve" smooth="yes"/>
      <point x="267" y="392"/>
      <point x="201" y="355"/>
      <point x="170" y="270" type="curve"/>
      <point x="193" y="260" type="line"/>
      <point x="217" y="306"/>
      <point x="246" y="322"/>
      <point x="275" y="322" type="curve" smooth="yes"/>
      <point x="327" y="322"/>
      <point x="348" y="270"/>
      <point x="348" y="178" type="curve" smooth="yes"/>
      <point x="348" y="79"/>
      <point x="323" y="39"/>
    </contour>
  </outline>
</glyph>
<glyph name="seven" format="2">
  <advance width="560"/>
  <unicode hex="0037"/>
  <outline>
    <contour>
      <point x="99" y="10" type="line"/>
      <point x="109" y="0" type="line"/>
      <point x="283" y="0" type="line"/>
      <point x="517" y="537" type="line"/>
      <point x="517" y="624" type="line"/>
      <point x="55" y="624" type="line"/>
      <point x="55" y="484" type="line"/>
      <point x="463" y="484" type="line"/>
      <point x="432" y="534" type="line"/>
    </contour>
  </outline>
</glyph>
<glyph name="nine" format="2">
  <advance width="560"/>
  <unicode hex="0039"/>
  <outline>
    <contour>
      <point x="213" y="441" type="curve" smooth="yes"/>
      <point x="213" y="547"/>
      <point x="244" y="586"/>
      <point x="280" y="586" type="curve" smooth="yes"/>
      <point x="321" y="586"/>
      <point x="347" y="551"/>
      <point x="347" y="393" type="curve" smooth="yes"/>
      <point x="347" y="184"/>
      <point x="277" y="98"/>
      <point x="96" y="37" type="curve"/>
      <point x="106" y="-20" type="line"/>
      <point x="351" y="12"/>
      <point x="537" y="154"/>
      <point x="537" y="367" type="curve" smooth="yes"/>
      <point x="537" y="539"/>
      <point x="446" y="640"/>
      <point x="275" y="640" type="curve" smooth="yes"/>
      <point x="146" y="640"/>
      <point x="28" y="573"/>
      <point x="28" y="426" type="curve" smooth="yes"/>
      <point x="28" y="302"/>
      <point x="111" y="236"/>
      <point x="228" y="236" type="curve" smooth="yes"/>
      <point x="302" y="236"/>
      <point x="352" y="266"/>
      <point x="382" y="304" type="curve"/>
      <point x="361" y="324" type="line"/>
      <point x="340" y="309"/>
      <point x="323" y="303"/>
      <point x="298" y="303" type="curve" smooth="yes"/>
      <point x="244" y="303"/>
      <point x="213" y="355"/>
    </contour>
  </outline>
</glyph>
<glyph name="N" format="2">
  <advance width="725"/>
  <unicode hex="004E"/>
  <anchor x="358" y="682" name="aboveUC"/>
  <anchor x="381" y="-22" name="belowLC"/>
  <outline>
    <contour>
      <point x="24" y="0" type="line"/>
      <point x="297" y="0" type="line"/>
      <point x="297" y="59" type="line"/>
      <point x="163" y="74" type="line"/>
      <point x="131" y="74" type="line"/>
      <point x="24" y="59" type="line"/>
    </contour>
    <contour>
      <point x="511" y="0" type="line"/>
      <point x="616" y="0" type="line"/>
      <point x="616" y="190" type="line"/>
      <point x="279" y="652" type="line"/>
      <point x="24" y="652" type="line"/>
      <point x="24" y="592" type="line"/>
      <point x="128" y="585" type="line"/>
      <point x="72" y="615" type="line"/>
    </contour>
    <contour>
      <point x="109" y="0" type="line"/>
      <point x="179" y="0" type="line"/>
      <point x="179" y="592" type="line"/>
      <point x="109" y="652" type="line"/>
    </contour>
    <contour>
      <point x="428" y="593" type="line"/>
      <point x="568" y="578" type="line"/>
      <point x="599" y="578" type="line"/>
      <point x="701" y="593" type="line"/>
      <point x="701" y="652" type="line"/>
      <point x="428" y="652" type="line"/>
    </contour>
    <contour>
      <point x="546" y="70" type="line"/>
      <point x="616" y="0" type="line"/>
      <point x="616" y="652" type="line"/>
      <point x="546" y="652" type="line"/>
    </contour>
  </outline>
</glyph>
<glyph name="o" format="2">
  <advance width="572"/>
  <unicode hex="006F"/>
  <anchor x="286" y="520" name="aboveLC"/>
  <anchor x="283" y="-22" name="belowLC"/>
  <anchor x="419" y="489" name="hornLC"/>
  <anchor x="366" y="0" name="ogonek"/>
  <outline>
    <contour>
      <point x="286" y="-16" type="curve" smooth="yes"/>
      <point x="457" y="-16"/>
      <point x="550" y="95"/>
      <point x="550" y="247" type="curve" smooth="yes"/>
      <point x="550" y="399"/>
      <point x="440" y="503"/>
      <point x="286" y="503" type="curve" smooth="yes"/>
      <point x="132" y="503"/>
      <point x="22" y="396"/>
      <point x="22" y="247" type="curve" smooth="yes"/>
      <point x="22" y="98"/>
      <point x="114" y="-16"/>
    </contour>
    <contour>
      <point x="286" y="39" type="curve" smooth="yes"/>
      <point x="242" y="39"/>
      <point x="222" y="98"/>
      <point x="222" y="244" type="curve" smooth="yes"/>
      <point x="222" y="389"/>
      <point x="242" y="448"/>
      <point x="286" y="448" type="curve" smooth="yes"/>
      <point x="330" y="448"/>
      <point x="350" y="389"/>
      <point x="350" y="244" type="curve" smooth="yes"/>
      <point x="350" y="98"/>
      <point x="330" y="39"/>
    </contour>
  </outline>
</glyph>
<glyph name="onequarter" format="2">
  <advance width="880"/>
  <unicode hex="00BC"/>
  <outline>
    <contour>
      <point x="65" y="599" type="line"/>
      <point x="65" y="557" type="line"/>
      <point x="132" y="567" type="line"/>
      <point x="132" y="243" type="line"/>
      <point x="255" y="243" type="line"/>
      <point x="255" y="634" type="line"/>
      <point x="246" y="641" type="line"/>
    </contour>
    <contour>
      <point x="253" y="294" type="line"/>
      <point x="137" y="294" type="line"/>
      <point x="59" y="275" type="line"/>
      <point x="59" y="243" type="line"/>
      <point x="323" y="243" type="line"/>
      <point x="323" y="275" type="line"/>
    </contour>
    <contour>
      <point x="472" y="85" type="line"/>
      <point x="796" y="85" type="line"/>
      <point x="796" y="163" type="line"/>
      <point x="503" y="163" type="line"/>
      <point x="515" y="142" type="line"/>
      <point x="659" y="328" type="line"/>
      <point x="635" y="328" type="line"/>
      <point x="635" y="0" type="line"/>
      <point x="741" y="0" type="line"/>
      <point x="741" y="387" type="line"/>
      <point x="656" y="387" type="line"/>
      <point x="472" y="149" type="line"/>
    </contour>
    <component base="fraction" xOffset="395"/>
  </outline>
</glyph>
<glyph name="onehalf" format="2">
  <advance width="880"/>
  <unicode hex="00BD"/>
  <outline>
    <contour>
      <point x="51" y="599" type="line"/>
      <point x="51" y="557" type="line"/>
      <point x="118" y="567" type="line"/>
      <point x="118" y="243" type="line"/>
      <point x="241" y="243" type="line"/>
      <point x="241" y="634" type="line"/>
      <point x="232" y="641" type="line"/>
    </contour>
    <contour>
      <point x="239" y="294" type="line"/>
      <point x="123" y="294" type="line"/>
      <point x="45" y="275" type="line"/>
      <point x="45" y="243" type="line"/>
      <point x="309" y="243" type="line"/>
      <point x="309" y="275" type="line"/>
    </contour>
    <contour>
      <point x="534" y="0" type="line"/>
      <point x="831" y="0" type="line"/>
      <point x="831" y="93" type="line"/>
      <point x="585" y="93" type="line"/>
      <point x="596" y="76" type="line"/>
      <point x="663" y="114" type="line" smooth="yes"/>
      <point x="772" y="176"/>
      <point x="826" y="227"/>
      <point x="826" y="289" type="curve" smooth="yes"/>
      <point x="826" y="349"/>
      <point x="784" y="397"/>
      <point x="696" y="397" type="curve" smooth="yes"/>
      <point x="600" y="397"/>
      <point x="531" y="363"/>
      <point x="531" y="290" type="curve"/>
      <point x="539" y="273"/>
      <point x="557" y="262"/>
      <point x="576" y="262" type="curve" smooth="yes"/>
      <point x="597" y="262"/>
      <point x="622" y="272"/>
      <point x="628" y="319" type="curve" smooth="yes"/>
      <point x="637" y="379" type="line"/>
      <point x="584" y="350" type="line"/>
      <point x="608" y="361"/>
      <point x="624" y="363"/>
      <point x="644" y="363" type="curve" smooth="yes"/>
      <point x="681" y="363"/>
      <point x="704" y="337"/>
      <point x="704" y="290" type="curve" smooth="yes"/>
      <point x="704" y="231"/>
      <point x="674" y="195"/>
      <point x="615" y="139" type="curve" smooth="yes"/>
      <point x="534" y="61" type="line"/>
    </contour>
    <component base="fraction" xOffset="373"/>
  </outline>
</glyph>
<glyph name="threequarters" format="2">
  <advance width="880"/>
  <unicode hex="00BE"/>
  <outline>
    <contour>
      <point x="157" y="461" type="line"/>
      <point x="157" y="425" type="line"/>
      <point x="176" y="425" type="line" smooth="yes"/>
      <point x="224" y="425"/>
      <point x="251" y="400"/>
      <point x="251" y="350" type="curve" smooth="yes"/>
      <point x="251" y="290"/>
      <point x="223" y="265"/>
      <point x="169" y="265" type="curve" smooth="yes"/>
      <point x="153" y="265"/>
      <point x="145" y="268"/>
      <point x="131" y="274" type="curve"/>
      <point x="164" y="247" type="line"/>
      <point x="158" y="310" type="line" smooth="yes"/>
      <point x="153" y="357"/>
      <point x="135" y="369"/>
      <point x="107" y="369" type="curve" smooth="yes"/>
      <point x="90" y="369"/>
      <point x="72" y="361"/>
      <point x="64" y="339" type="curve"/>
      <point x="64" y="272"/>
      <point x="111" y="231"/>
      <point x="210" y="231" type="curve" smooth="yes"/>
      <point x="316" y="231"/>
      <point x="376" y="278"/>
      <point x="376" y="344" type="curve" smooth="yes"/>
      <point x="376" y="406"/>
      <point x="342" y="443"/>
      <point x="237" y="451" type="curve"/>
      <point x="237" y="441" type="line"/>
      <point x="332" y="453"/>
      <point x="364" y="498"/>
      <point x="364" y="540" type="curve" smooth="yes"/>
      <point x="364" y="596"/>
      <point x="319" y="640"/>
      <point x="216" y="640" type="curve" smooth="yes"/>
      <point x="145" y="640"/>
      <point x="81" y="609"/>
      <point x="85" y="536" type="curve"/>
      <point x="93" y="526"/>
      <point x="107" y="518"/>
      <point x="123" y="518" type="curve" smooth="yes"/>
      <point x="146" y="518"/>
      <point x="170" y="529"/>
      <point x="175" y="562" type="curve" smooth="yes"/>
      <point x="183" y="622" type="line"/>
      <point x="140" y="598" type="line"/>
      <point x="159" y="603"/>
      <point x="175" y="606"/>
      <point x="185" y="606" type="curve" smooth="yes"/>
      <point x="223" y="606"/>
      <point x="246" y="584"/>
      <point x="246" y="536" type="curve" smooth="yes"/>
      <point x="246" y="481"/>
      <point x="218" y="461"/>
      <point x="173" y="461" type="curve" smooth="yes"/>
    </contour>
    <contour>
      <point x="484" y="85" type="line"/>
      <point x="808" y="85" type="line"/>
      <point x="808" y="163" type="line"/>
      <point x="515" y="163" type="line"/>
      <point x="527" y="142" type="line"/>
      <point x="671" y="328" type="line"/>
      <point x="647" y="328" type="line"/>
      <point x="647" y="0" type="line"/>
      <point x="753" y="0" type="line"/>
      <point x="753" y="387" type="line"/>
      <point x="668" y="387" type="line"/>
      <point x="484" y="149" type="line"/>
    </contour>
    <component base="fraction" xOffset="396" yOffset="-10"/>
  </outline>
</glyph>
<glyph name="Oslash" format="2">
  <advance width="700"/>
  <unicode hex="00D8"/>
  <anchor x="350" y="682" name="aboveUC"/>
  <outline>
    <contour>
      <point x="654" y="640" type="line"/>
      <point x="593" y="692" type="line"/>
      <point x="46" y="12" type="line"/>
      <point x="107" y="-40" type="line"/>
    </contour>
    <component base="O"/>
  </outline>
</glyph>
<glyph name="tcaron" format="2">
  <advance width="372"/>
  <unicode hex="0165"/>
  <outline>
    <contour>
      <point x="365" y="731" type="curve" smooth="yes"/>
      <point x="345" y="731"/>
      <point x="327" y="726"/>
      <point x="305" y="713" type="curve"/>
      <point x="300" y="514" type="line"/>
      <point x="355" y="514" type="line"/>
      <point x="388" y="579" type="line" smooth="yes"/>
      <point x="407" y="617"/>
      <point x="418" y="651"/>
      <point x="418" y="679" type="curve" smooth="yes"/>
      <point x="418" y="710"/>
      <point x="408" y="731"/>
    </contour>
    <component base="t"/>
  </outline>
</glyph>
<glyph name="macroncmb" format="2">
  <unicode hex="0304"/>
  <anchor x="0" y="520" name="_aboveLC"/>
  <outline>
    <contour>
      <point x="-171" y="583" type="line"/>
      <point x="171" y="583" type="line"/>
      <point x="171" y="683" type="line"/>
      <point x="-171" y="683" type="line"/>
    </contour>
  </outline>
</glyph>
<glyph name="dotaccentcmb" format="2">
  <unicode hex="0307"/>
  <anchor x="0" y="520" name="_aboveLC"/>
  <anchor x="0" y="740" name="aboveLC"/>
  <outline>
    <contour>
      <point x="0" y="562" type="curve" smooth="yes"/>
      <point x="51" y="562"/>
      <point x="92" y="598"/>
      <point x="92" y="648" type="curve" smooth="yes"/>
      <point x="92" y="698"/>
      <point x="51" y="734"/>
      <point x="0" y="734" type="curve" smooth="yes"/>
      <point x="-51" y="734"/>
      <point x="-92" y="698"/>
      <point x="-92" y="648" type="curve" smooth="yes"/>
      <point x="-92" y="598"/>
      <point x="-51" y="562"/>
    </contour>
  </outline>
</glyph>
<glyph name="caroncmb" format="2">
  <unicode hex="030C"/>
  <anchor x="0" y="520" name="_aboveLC"/>
  <outline>
    <contour>
      <point x="-127" y="779" type="line"/>
      <point x="-171" y="742" type="line"/>
      <point x="-45" y="563" type="line"/>
      <point x="45" y="563" type="line"/>
      <point x="171" y="742" type="line"/>
      <point x="127" y="779" type="line"/>
      <point x="-44" y="640" type="line"/>
      <point x="44" y="640" type="line"/>
    </contour>
  </outline>
</glyph>
<glyph name="verticallinebelowcmb" format="2">
  <unicode hex="0329"/>
  <anchor x="0" y="-22" name="_belowLC"/>
  <outline>
    <contour>
      <point x="-68" y="-270" type="line"/>
      <point x="68" y="-270" type="line"/>
      <point x="62" y="-62" type="line"/>
      <point x="-62" y="-62" type="line"/>
    </contour>
  </outline>
</glyph>
<glyph name="perthousand" format="2">
  <advance width="1231"/>
  <unicode hex="2030"/>
  <outline>
    <contour>
      <point x="990" y="193" type="curve" smooth="yes"/>
      <point x="990" y="331"/>
      <point x="1008" y="363"/>
      <point x="1035" y="363" type="curve" smooth="yes"/>
      <point x="1062" y="363"/>
      <point x="1082" y="330"/>
      <point x="1082" y="193" type="curve" smooth="yes"/>
      <point x="1082" y="57"/>
      <point x="1062" y="25"/>
      <point x="1035" y="25" type="curve" smooth="yes"/>
      <point x="1008" y="25"/>
      <point x="990" y="56"/>
    </contour>
    <contour>
      <point x="1035" y="397" type="curve" smooth="yes"/>
      <point x="950" y="397"/>
      <point x="878" y="333"/>
      <point x="878" y="193" type="curve" smooth="yes"/>
      <point x="878" y="55"/>
      <point x="950" y="-9"/>
      <point x="1035" y="-9" type="curve" smooth="yes"/>
      <point x="1119" y="-9"/>
      <point x="1194" y="55"/>
      <point x="1194" y="193" type="curve" smooth="yes"/>
      <point x="1194" y="333"/>
      <point x="1119" y="397"/>
    </contour>
    <component base="percent"/>
  </outline>
</glyph>
<glyph name="onethird" format="2">
  <advance width="880"/>
  <unicode hex="2153"/>
  <outline>
    <contour>
      <point x="43" y="599" type="line"/>
      <point x="43" y="557" type="line"/>
      <point x="110" y="567" type="line"/>
      <point x="110" y="243" type="line"/>
      <point x="233" y="243" type="line"/>
      <point x="233" y="634" type="line"/>
      <point x="224" y="641" type="line"/>
    </contour>
    <contour>
      <point x="231" y="294" type="line"/>
      <point x="115" y="294" type="line"/>
      <point x="37" y="275" type="line"/>
      <point x="37" y="243" type="line"/>
      <point x="301" y="243" type="line"/>
      <point x="301" y="275" type="line"/>
    </contour>
    <contour>
      <point x="620" y="218" type="line"/>
      <point x="620" y="182" type="line"/>
      <point x="639" y="182" type="line" smooth="yes"/>
      <point x="687" y="182"/>
      <point x="714" y="157"/>
      <point x="714" y="107" type="curve" smooth="yes"/>
      <point x="714" y="47"/>
      <point x="686" y="22"/>
      <point x="632" y="22" type="curve" smooth="yes"/>
      <point x="616" y="22"/>
      <point x="608" y="25"/>
      <point x="594" y="31" type="curve"/>
      <point x="627" y="4" type="line"/>
      <point x="621" y="67" type="line" smooth="yes"/>
      <point x="616" y="114"/>
      <point x="598" y="126"/>
      <point x="570" y="126" type="curve" smooth="yes"/>
      <point x="553" y="126"/>
      <point x="535" y="118"/>
      <point x="527" y="96" type="curve"/>
      <point x="527" y="29"/>
      <point x="574" y="-12"/>
      <point x="673" y="-12" type="curve" smooth="yes"/>
      <point x="779" y="-12"/>
      <point x="839" y="35"/>
      <point x="839" y="101" type="curve" smooth="yes"/>
      <point x="839" y="163"/>
      <point x="805" y="200"/>
      <point x="700" y="208" type="curve"/>
      <point x="700" y="198" type="line"/>
      <point x="795" y="210"/>
      <point x="827" y="255"/>
      <point x="827" y="297" type="curve" smooth="yes"/>
      <point x="827" y="353"/>
      <point x="782" y="397"/>
      <point x="679" y="397" type="curve" smooth="yes"/>
      <point x="608" y="397"/>
      <point x="544" y="366"/>
      <point x="548" y="293" type="curve"/>
      <point x="556" y="283"/>
      <point x="570" y="275"/>
      <point x="586" y="275" type="curve" smooth="yes"/>
      <point x="609" y="275"/>
      <point x="633" y="286"/>
      <point x="638" y="319" type="curve" smooth="yes"/>
      <point x="646" y="379" type="line"/>
      <point x="603" y="355" type="line"/>
      <point x="622" y="360"/>
      <point x="638" y="363"/>
      <point x="648" y="363" type="curve" smooth="yes"/>
      <point x="686" y="363"/>
      <point x="709" y="341"/>
      <point x="709" y="293" type="curve" smooth="yes"/>
      <point x="709" y="238"/>
      <point x="681" y="218"/>
      <point x="636" y="218" type="curve" smooth="yes"/>
    </contour>
    <component base="fraction" xOffset="377"/>
  </outline>
</glyph>
<glyph name="twothirds" format="2">
  <advance width="880"/>
  <unicode hex="2154"/>
  <outline>
    <contour>
      <point x="40" y="243" type="line"/>
      <point x="337" y="243" type="line"/>
      <point x="337" y="336" type="line"/>
      <point x="91" y="336" type="line"/>
      <point x="102" y="319" type="line"/>
      <point x="169" y="357" type="line" smooth="yes"/>
      <point x="278" y="419"/>
      <point x="332" y="470"/>
      <point x="332" y="532" type="curve" smooth="yes"/>
      <point x="332" y="592"/>
      <point x="290" y="640"/>
      <point x="202" y="640" type="curve" smooth="yes"/>
      <point x="106" y="640"/>
      <point x="37" y="606"/>
      <point x="37" y="533" type="curve"/>
      <point x="45" y="516"/>
      <point x="63" y="505"/>
      <point x="82" y="505" type="curve" smooth="yes"/>
      <point x="103" y="505"/>
      <point x="128" y="515"/>
      <point x="134" y="562" type="curve" smooth="yes"/>
      <point x="143" y="622" type="line"/>
      <point x="90" y="593" type="line"/>
      <point x="114" y="604"/>
      <point x="130" y="606"/>
      <point x="150" y="606" type="curve" smooth="yes"/>
      <point x="187" y="606"/>
      <point x="210" y="580"/>
      <point x="210" y="533" type="curve" smooth="yes"/>
      <point x="210" y="474"/>
      <point x="180" y="438"/>
      <point x="121" y="382" type="curve" smooth="yes"/>
      <point x="40" y="304" type="line"/>
    </contour>
    <contour>
      <point x="635" y="218" type="line"/>
      <point x="635" y="182" type="line"/>
      <point x="654" y="182" type="line" smooth="yes"/>
      <point x="702" y="182"/>
      <point x="729" y="157"/>
      <point x="729" y="107" type="curve" smooth="yes"/>
      <point x="729" y="47"/>
      <point x="701" y="22"/>
      <point x="647" y="22" type="curve" smooth="yes"/>
      <point x="631" y="22"/>
      <point x="623" y="25"/>
      <point x="609" y="31" type="curve"/>
      <point x="642" y="4" type="line"/>
      <point x="636" y="67" type="line" smooth="yes"/>
      <point x="631" y="114"/>
      <point x="613" y="126"/>
      <point x="585" y="126" type="curve" smooth="yes"/>
      <point x="568" y="126"/>
      <point x="550" y="118"/>
      <point x="542" y="96" type="curve"/>
      <point x="542" y="29"/>
      <point x="589" y="-12"/>
      <point x="688" y="-12" type="curve" smooth="yes"/>
      <point x="794" y="-12"/>
      <point x="854" y="35"/>
      <point x="854" y="101" type="curve" smooth="yes"/>
      <point x="854" y="163"/>
      <point x="820" y="200"/>
      <point x="715" y="208" type="curve"/>
      <point x="715" y="198" type="line"/>
      <point x="810" y="210"/>
      <point x="842" y="255"/>
      <point x="842" y="297" type="curve" smooth="yes"/>
      <point x="842" y="353"/>
      <point x="797" y="397"/>
      <point x="694" y="397" type="curve" smooth="yes"/>
      <point x="623" y="397"/>
      <point x="559" y="366"/>
      <point x="563" y="293" type="curve"/>
      <point x="571" y="283"/>
      <point x="585" y="275"/>
      <point x="601" y="275" type="curve" smooth="yes"/>
      <point x="624" y="275"/>
      <point x="648" y="286"/>
      <point x="653" y="319" type="curve" smooth="yes"/>
      <point x="661" y="379" type="line"/>
      <point x="618" y="355" type="line"/>
      <point x="637" y="360"/>
      <point x="653" y="363"/>
      <point x="663" y="363" type="curve" smooth="yes"/>
      <point x="701" y="363"/>
      <point x="724" y="341"/>
      <point x="724" y="293" type="curve" smooth="yes"/>
      <point x="724" y="238"/>
      <point x="696" y="218"/>
      <point x="651" y="218" type="curve" smooth="yes"/>
    </contour>
    <component base="fraction" xOffset="399"/>
  </outline>
</glyph>
<glyph name="oneeighth" format="2">
  <advance width="880"/>
  <unicode hex="215B"/>
  <outline>
    <contour>
      <point x="48" y="599" type="line"/>
      <point x="48" y="557" type="line"/>
      <point x="115" y="567" type="line"/>
      <point x="115" y="243" type="line"/>
      <point x="238" y="243" type="line"/>
      <point x="238" y="634" type="line"/>
      <point x="229" y="641" type="line"/>
    </contour>
    <contour>
      <point x="236" y="294" type="line"/>
      <point x="120" y="294" type="line"/>
      <point x="42" y="275" type="line"/>
      <point x="42" y="243" type="line"/>
      <point x="306" y="243" type="line"/>
      <point x="306" y="275" type="line"/>
    </contour>
    <contour>
      <point x="519" y="77" type="curve" smooth="yes"/>
      <point x="519" y="25"/>
      <point x="560" y="-12"/>
      <point x="658" y="-12" type="curve" smooth="yes"/>
      <point x="765" y="-12"/>
      <point x="823" y="31"/>
      <point x="823" y="101" type="curve" smooth="yes"/>
      <point x="823" y="158"/>
      <point x="788" y="203"/>
      <point x="716" y="233" type="curve" smooth="yes"/>
      <point x="637" y="265"/>
      <point x="623" y="292"/>
      <point x="623" y="320" type="curve" smooth="yes"/>
      <point x="623" y="348"/>
      <point x="646" y="365"/>
      <point x="672" y="365" type="curve" smooth="yes"/>
      <point x="700" y="365"/>
      <point x="718" y="344"/>
      <point x="718" y="316" type="curve" smooth="yes"/>
      <point x="718" y="286"/>
      <point x="713" y="263"/>
      <point x="684" y="224" type="curve"/>
      <point x="699" y="213" type="line"/>
      <point x="783" y="239"/>
      <point x="811" y="273"/>
      <point x="811" y="312" type="curve" smooth="yes"/>
      <point x="811" y="357"/>
      <point x="772" y="397"/>
      <point x="675" y="397" type="curve" smooth="yes"/>
      <point x="587" y="397"/>
      <point x="524" y="353"/>
      <point x="524" y="285" type="curve" smooth="yes"/>
      <point x="524" y="231"/>
      <point x="560" y="189"/>
      <point x="623" y="164" type="curve" smooth="yes"/>
      <point x="696" y="134"/>
      <point x="716" y="106"/>
      <point x="716" y="70" type="curve" smooth="yes"/>
      <point x="716" y="46"/>
      <point x="702" y="21"/>
      <point x="668" y="21" type="curve" smooth="yes"/>
      <point x="638" y="21"/>
      <point x="615" y="47"/>
      <point x="615" y="83" type="curve" smooth="yes"/>
      <point x="615" y="118"/>
      <point x="625" y="145"/>
      <point x="658" y="178" type="curve"/>
      <point x="642" y="188" type="line"/>
      <point x="562" y="169"/>
      <point x="519" y="130"/>
    </contour>
    <component base="fraction" xOffset="372"/>
  </outline>
</glyph>
<glyph name="threeeighths" format="2">
  <advance width="880"/>
  <unicode hex="215C"/>
  <outline>
    <contour>
      <point x="136" y="461" type="line"/>
      <point x="136" y="425" type="line"/>
      <point x="155" y="425" type="line" smooth="yes"/>
      <point x="203" y="425"/>
      <point x="230" y="400"/>
      <point x="230" y="350" type="curve" smooth="yes"/>
      <point x="230" y="290"/>
      <point x="202" y="265"/>
      <point x="148" y="265" type="curve" smooth="yes"/>
      <point x="132" y="265"/>
      <point x="124" y="268"/>
      <point x="110" y="274" type="curve"/>
      <point x="143" y="247" type="line"/>
      <point x="137" y="310" type="line" smooth="yes"/>
      <point x="132" y="357"/>
      <point x="114" y="369"/>
      <point x="86" y="369" type="curve" smooth="yes"/>
      <point x="69" y="369"/>
      <point x="51" y="361"/>
      <point x="43" y="339" type="curve"/>
      <point x="43" y="272"/>
      <point x="90" y="231"/>
      <point x="189" y="231" type="curve" smooth="yes"/>
      <point x="295" y="231"/>
      <point x="355" y="278"/>
      <point x="355" y="344" type="curve" smooth="yes"/>
      <point x="355" y="406"/>
      <point x="321" y="443"/>
      <point x="216" y="451" type="curve"/>
      <point x="216" y="441" type="line"/>
      <point x="311" y="453"/>
      <point x="343" y="498"/>
      <point x="343" y="540" type="curve" smooth="yes"/>
      <point x="343" y="596"/>
      <point x="298" y="640"/>
      <point x="195" y="640" type="curve" smooth="yes"/>
      <point x="124" y="640"/>
      <point x="60" y="609"/>
      <point x="64" y="536" type="curve"/>
      <point x="72" y="526"/>
      <point x="86" y="518"/>
      <point x="102" y="518" type="curve" smooth="yes"/>
      <point x="125" y="518"/>
      <point x="149" y="529"/>
      <point x="154" y="562" type="curve" smooth="yes"/>
      <point x="162" y="622" type="line"/>
      <point x="119" y="598" type="line"/>
      <point x="138" y="603"/>
      <point x="154" y="606"/>
      <point x="164" y="606" type="curve" smooth="yes"/>
      <point x="202" y="606"/>
      <point x="225" y="584"/>
      <point x="225" y="536" type="curve" smooth="yes"/>
      <point x="225" y="481"/>
      <point x="197" y="461"/>
      <point x="152" y="461" type="curve" smooth="yes"/>
    </contour>
    <contour>
      <point x="537" y="77" type="curve" smooth="yes"/>
      <point x="537" y="25"/>
      <point x="578" y="-12"/>
      <point x="676" y="-12" type="curve" smooth="yes"/>
      <point x="783" y="-12"/>
      <point x="841" y="31"/>
      <point x="841" y="101" type="curve" smooth="yes"/>
      <point x="841" y="158"/>
      <point x="806" y="203"/>
      <point x="734" y="233" type="curve" smooth="yes"/>
      <point x="655" y="265"/>
      <point x="641" y="292"/>
      <point x="641" y="320" type="curve" smooth="yes"/>
      <point x="641" y="348"/>
      <point x="664" y="365"/>
      <point x="690" y="365" type="curve" smooth="yes"/>
      <point x="718" y="365"/>
      <point x="736" y="344"/>
      <point x="736" y="316" type="curve" smooth="yes"/>
      <point x="736" y="286"/>
      <point x="731" y="263"/>
      <point x="702" y="224" type="curve"/>
      <point x="717" y="213" type="line"/>
      <point x="801" y="239"/>
      <point x="829" y="273"/>
      <point x="829" y="312" type="curve" smooth="yes"/>
      <point x="829" y="357"/>
      <point x="790" y="397"/>
      <point x="693" y="397" type="curve" smooth="yes"/>
      <point x="605" y="397"/>
      <point x="542" y="353"/>
      <point x="542" y="285" type="curve" smooth="yes"/>
      <point x="542" y="231"/>
      <point x="578" y="189"/>
      <point x="641" y="164" type="curve" smooth="yes"/>
      <point x="714" y="134"/>
      <point x="734" y="106"/>
      <point x="734" y="70" type="curve" smooth="yes"/>
      <point x="734" y="46"/>
      <point x="720" y="21"/>
      <point x="686" y="21" type="curve" smooth="yes"/>
      <point x="656" y="21"/>
      <point x="633" y="47"/>
      <point x="633" y="83" type="curve" smooth="yes"/>
      <point x="633" y="118"/>
      <point x="643" y="145"/>
      <point x="676" y="178" type="curve"/>
      <point x="660" y="188" type="line"/>
      <point x="580" y="169"/>
      <point x="537" y="130"/>
    </contour>
    <component base="fraction" xOffset="380"/>
  </outline>
</glyph>
<glyph name="fiveeighths" format="2">
  <advance width="880"/>
  <unicode hex="215D"/>
  <outline>
    <contour>
      <point x="87" y="463" type="line"/>
      <point x="128" y="463" type="line"/>
      <point x="138" y="611" type="line"/>
      <point x="108" y="540" type="line"/>
      <point x="339" y="540" type="line"/>
      <point x="339" y="630" type="line"/>
      <point x="95" y="630" type="line"/>
      <point x="81" y="449" type="line"/>
      <point x="99" y="434" type="line"/>
      <point x="121" y="439"/>
      <point x="138" y="441"/>
      <point x="160" y="441" type="curve" smooth="yes"/>
      <point x="204" y="441"/>
      <point x="229" y="411"/>
      <point x="229" y="352" type="curve" smooth="yes"/>
      <point x="229" y="296"/>
      <point x="197" y="264"/>
      <point x="156" y="264" type="curve" smooth="yes"/>
      <point x="140" y="264"/>
      <point x="134" y="266"/>
      <point x="119" y="272" type="curve"/>
      <point x="138" y="252" type="line"/>
      <point x="133" y="311" type="line" smooth="yes"/>
      <point x="130" y="350"/>
      <point x="113" y="365"/>
      <point x="84" y="365" type="curve" smooth="yes"/>
      <point x="65" y="365"/>
      <point x="47" y="356"/>
      <point x="39" y="336" type="curve"/>
      <point x="39" y="274"/>
      <point x="90" y="231"/>
      <point x="179" y="231" type="curve" smooth="yes"/>
      <point x="279" y="231"/>
      <point x="357" y="274"/>
      <point x="357" y="364" type="curve" smooth="yes"/>
      <point x="357" y="446"/>
      <point x="295" y="488"/>
      <point x="192" y="488" type="curve" smooth="yes"/>
      <point x="153" y="488"/>
      <point x="120" y="484"/>
      <point x="87" y="472" type="curve"/>
    </contour>
    <contour>
      <point x="537" y="77" type="curve" smooth="yes"/>
      <point x="537" y="25"/>
      <point x="578" y="-12"/>
      <point x="676" y="-12" type="curve" smooth="yes"/>
      <point x="783" y="-12"/>
      <point x="841" y="31"/>
      <point x="841" y="101" type="curve" smooth="yes"/>
      <point x="841" y="158"/>
      <point x="806" y="203"/>
      <point x="734" y="233" type="curve" smooth="yes"/>
      <point x="655" y="265"/>
      <point x="641" y="292"/>
      <point x="641" y="320" type="curve" smooth="yes"/>
      <point x="641" y="348"/>
      <point x="664" y="365"/>
      <point x="690" y="365" type="curve" smooth="yes"/>
      <point x="718" y="365"/>
      <point x="736" y="344"/>
      <point x="736" y="316" type="curve" smooth="yes"/>
      <point x="736" y="286"/>
      <point x="731" y="263"/>
      <point x="702" y="224" type="curve"/>
      <point x="717" y="213" type="line"/>
      <point x="801" y="239"/>
      <point x="829" y="273"/>
      <point x="829" y="312" type="curve" smooth="yes"/>
      <point x="829" y="357"/>
      <point x="790" y="397"/>
      <point x="693" y="397" type="curve" smooth="yes"/>
      <point x="605" y="397"/>
      <point x="542" y="353"/>
      <point x="542" y="285" type="curve" smooth="yes"/>
      <point x="542" y="231"/>
      <point x="578" y="189"/>
      <point x="641" y="164" type="curve" smooth="yes"/>
      <point x="714" y="134"/>
      <point x="734" y="106"/>
      <point x="734" y="70" type="curve" smooth="yes"/>
      <point x="734" y="46"/>
      <point x="720" y="21"/>
      <point x="686" y="21" type="curve" smooth="yes"/>
      <point x="656" y="21"/>
      <point x="633" y="47"/>
      <point x="633" y="83" type="curve" smooth="yes"/>
      <point x="633" y="118"/>
      <point x="643" y="145"/>
      <point x="676" y="178" type="curve"/>
      <point x="660" y="188" type="line"/>
      <point x="580" y="169"/>
      <point x="537" y="130"/>
    </contour>
    <component base="fraction" xOffset="380"/>
  </outline>
</glyph>
<glyph name="seveneighths" format="2">
  <advance width="880"/>
  <unicode hex="215E"/>
  <outline>
    <contour>
      <point x="122" y="249" type="line"/>
      <point x="129" y="243" type="line"/>
      <point x="238" y="243" type="line"/>
      <point x="387" y="578" type="line"/>
      <point x="387" y="630" type="line"/>
      <point x="92" y="630" type="line"/>
      <point x="92" y="537" type="line"/>
      <point x="353" y="537" type="line"/>
      <point x="334" y="576" type="line"/>
    </contour>
    <contour>
      <point x="512" y="77" type="curve" smooth="yes"/>
      <point x="512" y="25"/>
      <point x="553" y="-12"/>
      <point x="651" y="-12" type="curve" smooth="yes"/>
      <point x="758" y="-12"/>
      <point x="816" y="31"/>
      <point x="816" y="101" type="curve" smooth="yes"/>
      <point x="816" y="158"/>
      <point x="781" y="203"/>
      <point x="709" y="233" type="curve" smooth="yes"/>
      <point x="630" y="265"/>
      <point x="616" y="292"/>
      <point x="616" y="320" type="curve" smooth="yes"/>
      <point x="616" y="348"/>
      <point x="639" y="365"/>
      <point x="665" y="365" type="curve" smooth="yes"/>
      <point x="693" y="365"/>
      <point x="711" y="344"/>
      <point x="711" y="316" type="curve" smooth="yes"/>
      <point x="711" y="286"/>
      <point x="706" y="263"/>
      <point x="677" y="224" type="curve"/>
      <point x="692" y="213" type="line"/>
      <point x="776" y="239"/>
      <point x="804" y="273"/>
      <point x="804" y="312" type="curve" smooth="yes"/>
      <point x="804" y="357"/>
      <point x="765" y="397"/>
      <point x="668" y="397" type="curve" smooth="yes"/>
      <point x="580" y="397"/>
      <point x="517" y="353"/>
      <point x="517" y="285" type="curve" smooth="yes"/>
      <point x="517" y="231"/>
      <point x="553" y="189"/>
      <point x="616" y="164" type="curve" smooth="yes"/>
      <point x="689" y="134"/>
      <point x="709" y="106"/>
      <point x="709" y="70" type="curve" smooth="yes"/>
      <point x="709" y="46"/>
      <point x="695" y="21"/>
      <point x="661" y="21" type="curve" smooth="yes"/>
      <point x="631" y="21"/>
      <point x="608" y="47"/>
      <point x="608" y="83" type="curve" smooth="yes"/>
      <point x="608" y="118"/>
      <point x="618" y="145"/>
      <point x="651" y="178" type="curve"/>
      <point x="635" y="188" type="line"/>
      <point x="555" y="169"/>
      <point x="512" y="130"/>
    </contour>
    <component base="fraction" xOffset="343"/>
  </outline>
</glyph>
<glyph name="threeemdash" format="2">
  <advance width="2390"/>
  <unicode hex="2E3B"/>
  <outline>
    <contour>
      <point x="40" y="205" type="line"/>
      <point x="2350" y="205" type="line"/>
      <point x="2350" y="305" type="line"/>
      <point x="40" y="305" type="line"/>
    </contour>
  </outline>
</glyph>
<glyph name="uniE600" format="2">
  <advance width="638"/>
  <unicode hex="E600"/>
  <outline>
    <contour>
      <point x="247" y="273" type="curve"/>
      <point x="297" y="209" type="line"/>
      <point x="313" y="209" type="line"/>
      <point x="335" y="233"/>
      <point x="360" y="255"/>
      <point x="387" y="273" type="curve"/>
      <point x="331" y="346" type="line"/>
      <point x="300" y="325"/>
      <point x="272" y="301"/>
    </contour>
    <contour>
      <point x="194" y="199" type="curve"/>
      <point x="122" y="199" type="line"/>
      <point x="87" y="322"/>
      <point x="160" y="467"/>
      <point x="329" y="467" type="curve" smooth="yes"/>
      <point x="440" y="467"/>
      <point x="534" y="396"/>
      <point x="534" y="290" type="curve" smooth="yes"/>
      <point x="534" y="186"/>
      <point x="429" y="99"/>
      <point x="312" y="51" type="curve"/>
      <point x="303" y="29" type="line"/>
      <point x="508" y="-262" type="line"/>
      <point x="530" y="-251" type="line"/>
      <point x="536" y="-151" type="line"/>
      <point x="393" y="14" type="line"/>
      <point x="391" y="-20" type="line"/>
      <point x="507" y="47"/>
      <point x="583" y="128"/>
      <point x="583" y="272" type="curve" smooth="yes"/>
      <point x="583" y="426"/>
      <point x="496" y="566"/>
      <point x="313" y="566" type="curve"/>
      <point x="150" y="566"/>
      <point x="55" y="428"/>
      <point x="55" y="281" type="curve" smooth="yes"/>
      <point x="55" y="198"/>
      <point x="85" y="90"/>
      <point x="155" y="90" type="curve" smooth="yes"/>
      <point x="201" y="90"/>
      <point x="231" y="136"/>
    </contour>
  </outline>
</glyph>
<glyph name="uniE601" format="2">
  <advance width="619"/>
  <unicode hex="E601"/>
  <outline>
    <contour>
      <point x="88" y="-9" type="line"/>
      <point x="458" y="-26"/>
      <point x="550" y="154"/>
      <point x="550" y="295" type="curve" smooth="yes"/>
      <point x="550" y="416"/>
      <point x="489" y="566"/>
      <point x="323" y="566" type="curve" smooth="yes"/>
      <point x="176" y="566"/>
      <point x="89" y="445"/>
      <point x="89" y="241" type="curve" smooth="yes"/>
      <point x="89" y="163"/>
      <point x="89" y="-200"/>
      <point x="89" y="-200" type="curve"/>
      <point x="153" y="-263" type="line"/>
      <point x="175" y="-251" type="line"/>
      <point x="167" y="-90"/>
      <point x="149" y="109"/>
      <point x="149" y="211" type="curve" smooth="yes"/>
      <point x="149" y="383"/>
      <point x="230" y="467"/>
      <point x="341" y="467" type="curve" smooth="yes"/>
      <point x="422" y="467"/>
      <point x="500" y="411"/>
      <point x="500" y="314" type="curve" smooth="yes"/>
      <point x="500" y="204"/>
      <point x="390" y="79"/>
      <point x="10" y="91" type="curve"/>
      <point x="9" y="65" type="line"/>
    </contour>
  </outline>
</glyph>
<glyph name="uniE605" format="2">
  <advance width="922"/>
  <unicode hex="E605"/>
  <outline>
    <contour>
      <point x="55" y="190" type="curve" smooth="yes"/>
      <point x="55" y="80"/>
      <point x="107" y="-15"/>
      <point x="233" y="-15" type="curve" smooth="yes"/>
      <point x="350" y="-15"/>
      <point x="417" y="88"/>
      <point x="417" y="209" type="curve" smooth="yes"/>
      <point x="417" y="316"/>
      <point x="364" y="412"/>
      <point x="238" y="412" type="curve" smooth="yes"/>
      <point x="122" y="412"/>
      <point x="55" y="308"/>
    </contour>
    <contour>
      <point x="397" y="475" type="curve"/>
      <point x="404" y="416" type="line"/>
      <point x="427" y="416" type="line"/>
      <point x="682" y="581" type="line"/>
      <point x="676" y="679" type="line"/>
      <point x="654" y="691" type="line"/>
      <point x="559" y="617"/>
      <point x="473" y="546"/>
    </contour>
    <contour>
      <point x="505" y="190" type="curve" smooth="yes"/>
      <point x="505" y="80"/>
      <point x="558" y="-15"/>
      <point x="683" y="-15" type="curve" smooth="yes"/>
      <point x="800" y="-15"/>
      <point x="867" y="88"/>
      <point x="867" y="209" type="curve" smooth="yes"/>
      <point x="867" y="316"/>
      <point x="814" y="412"/>
      <point x="688" y="412" type="curve" smooth="yes"/>
      <point x="572" y="412"/>
      <point x="505" y="308"/>
    </contour>
    <contour>
      <point x="554" y="185" type="curve" smooth="yes"/>
      <point x="554" y="252"/>
      <point x="609" y="323"/>
      <point x="695" y="323" type="curve" smooth="yes"/>
      <point x="765" y="323"/>
      <point x="817" y="276"/>
      <point x="817" y="214" type="curve" smooth="yes"/>
      <point x="817" y="148"/>
      <point x="763" y="76"/>
      <point x="677" y="76" type="curve" smooth="yes"/>
      <point x="608" y="76"/>
      <point x="554" y="121"/>
    </contour>
    <contour>
      <point x="104" y="185" type="curve" smooth="yes"/>
      <point x="104" y="252"/>
      <point x="159" y="323"/>
      <point x="245" y="323" type="curve" smooth="yes"/>
      <point x="314" y="323"/>
      <point x="367" y="276"/>
      <point x="367" y="214" type="curve" smooth="yes"/>
      <point x="367" y="148"/>
      <point x="312" y="76"/>
      <point x="226" y="76" type="curve" smooth="yes"/>
      <point x="158" y="76"/>
      <point x="104" y="121"/>
    </contour>
  </outline>
</glyph>
<glyph name="uniE607" format="2">
  <advance width="500"/>
  <unicode hex="E607"/>
  <outline>
    <contour>
      <point x="104" y="367" type="curve" smooth="yes"/>
      <point x="104" y="423"/>
      <point x="174" y="479"/>
      <point x="274" y="479" type="curve" smooth="yes"/>
      <point x="344" y="479"/>
      <point x="396" y="451"/>
      <point x="396" y="404" type="curve" smooth="yes"/>
      <point x="396" y="351"/>
      <point x="326" y="291"/>
      <point x="227" y="291" type="curve" smooth="yes"/>
      <point x="158" y="291"/>
      <point x="104" y="320"/>
    </contour>
    <contour>
      <point x="55" y="381" type="curve" smooth="yes"/>
      <point x="55" y="289"/>
      <point x="113" y="205"/>
      <point x="248" y="205" type="curve" smooth="yes"/>
      <point x="375" y="205"/>
      <point x="445" y="287"/>
      <point x="445" y="389" type="curve" smooth="yes"/>
      <point x="445" y="480"/>
      <point x="388" y="566"/>
      <point x="252" y="566" type="curve" smooth="yes"/>
      <point x="126" y="566"/>
      <point x="55" y="482"/>
    </contour>
    <contour>
      <point x="99" y="-97" type="curve" smooth="yes"/>
      <point x="99" y="-41"/>
      <point x="171" y="16"/>
      <point x="274" y="16" type="curve" smooth="yes"/>
      <point x="347" y="16"/>
      <point x="401" y="-13"/>
      <point x="401" y="-60" type="curve" smooth="yes"/>
      <point x="401" y="-113"/>
      <point x="329" y="-173"/>
      <point x="227" y="-173" type="curve" smooth="yes"/>
      <point x="155" y="-173"/>
      <point x="99" y="-145"/>
    </contour>
    <contour>
      <point x="50" y="-82" type="curve" smooth="yes"/>
      <point x="50" y="-175"/>
      <point x="109" y="-260"/>
      <point x="248" y="-260" type="curve" smooth="yes"/>
      <point x="378" y="-260"/>
      <point x="450" y="-177"/>
      <point x="450" y="-74" type="curve" smooth="yes"/>
      <point x="450" y="17"/>
      <point x="391" y="102"/>
      <point x="252" y="102" type="curve" smooth="yes"/>
      <point x="123" y="102"/>
      <point x="50" y="19"/>
    </contour>
    <contour>
      <point x="217" y="84" type="line"/>
      <point x="270" y="24" type="line"/>
      <point x="285" y="24" type="line"/>
      <point x="285" y="175" type="line"/>
      <point x="231" y="233" type="line"/>
      <point x="217" y="233" type="line"/>
    </contour>
  </outline>
</glyph>
<glyph name="uniE610" format="2">
  <advance width="614"/>
  <unicode hex="E610"/>
  <outline>
    <contour>
      <point x="315" y="467" type="curve" smooth="yes"/>
      <point x="425" y="467"/>
      <point x="459" y="389"/>
      <point x="459" y="248" type="curve" smooth="yes"/>
      <point x="459" y="41" type="line"/>
      <point x="512" y="-13" type="line"/>
      <point x="535" y="0" type="line"/>
      <point x="535" y="280" type="line" smooth="yes"/>
      <point x="535" y="448"/>
      <point x="466" y="566"/>
      <point x="310" y="566" type="curve" smooth="yes"/>
      <point x="131" y="566"/>
      <point x="69" y="406"/>
      <point x="69" y="254" type="curve" smooth="yes"/>
      <point x="69" y="115"/>
      <point x="114" y="-18"/>
      <point x="183" y="-18" type="curve" smooth="yes"/>
      <point x="230" y="-18"/>
      <point x="259" y="30"/>
      <point x="223" y="93" type="curve"/>
      <point x="151" y="93" type="line"/>
      <point x="133" y="143"/>
      <point x="129" y="196"/>
      <point x="129" y="243" type="curve" smooth="yes"/>
      <point x="129" y="365"/>
      <point x="190" y="467"/>
    </contour>
  </outline>
</glyph>
<glyph name="uniE611" format="2">
  <advance width="500"/>
  <unicode hex="E611"/>
  <outline>
    <contour>
      <point x="104" y="361" type="curve" smooth="yes"/>
      <point x="104" y="420"/>
      <point x="174" y="479"/>
      <point x="273" y="479" type="curve" smooth="yes"/>
      <point x="344" y="479"/>
      <point x="396" y="450"/>
      <point x="396" y="399" type="curve" smooth="yes"/>
      <point x="396" y="345"/>
      <point x="326" y="280"/>
      <point x="227" y="280" type="curve" smooth="yes"/>
      <point x="158" y="280"/>
      <point x="104" y="311"/>
    </contour>
    <contour>
      <point x="55" y="376" type="curve" smooth="yes"/>
      <point x="55" y="280"/>
      <point x="113" y="193"/>
      <point x="248" y="193" type="curve" smooth="yes"/>
      <point x="375" y="193"/>
      <point x="445" y="278"/>
      <point x="445" y="384" type="curve" smooth="yes"/>
      <point x="445" y="477"/>
      <point x="388" y="566"/>
      <point x="252" y="566" type="curve" smooth="yes"/>
      <point x="126" y="566"/>
      <point x="55" y="480"/>
    </contour>
    <contour>
      <point x="99" y="-88" type="curve" smooth="yes"/>
      <point x="99" y="-30"/>
      <point x="171" y="30"/>
      <point x="273" y="30" type="curve" smooth="yes"/>
      <point x="347" y="30"/>
      <point x="401" y="-1"/>
      <point x="401" y="-50" type="curve" smooth="yes"/>
      <point x="401" y="-106"/>
      <point x="329" y="-169"/>
      <point x="227" y="-169" type="curve" smooth="yes"/>
      <point x="155" y="-169"/>
      <point x="99" y="-140"/>
    </contour>
    <contour>
      <point x="50" y="-73" type="curve" smooth="yes"/>
      <point x="50" y="-169"/>
      <point x="109" y="-257"/>
      <point x="248" y="-257" type="curve" smooth="yes"/>
      <point x="378" y="-257"/>
      <point x="450" y="-171"/>
      <point x="450" y="-65" type="curve" smooth="yes"/>
      <point x="450" y="29"/>
      <point x="391" y="117"/>
      <point x="252" y="117" type="curve" smooth="yes"/>
      <point x="123" y="117"/>
      <point x="50" y="31"/>
    </contour>
  </outline>
</glyph>
<glyph name="uniE613" format="2">
  <advance width="431"/>
  <unicode hex="E613"/>
  <outline>
    <contour>
      <point x="48" y="-154" type="line"/>
      <point x="96" y="-234"/>
      <point x="148" y="-316"/>
      <point x="207" y="-399" type="curve"/>
      <point x="227" y="-387" type="line"/>
      <point x="232" y="-292" type="line"/>
      <point x="74" y="-95" type="line"/>
      <point x="55" y="-95" type="line"/>
    </contour>
    <contour>
      <point x="318" y="-161" type="line"/>
      <point x="161" y="-19" type="line"/>
      <point x="121" y="-14" type="line"/>
      <point x="237" y="-67"/>
      <point x="376" y="-13"/>
      <point x="376" y="105" type="curve" smooth="yes"/>
      <point x="376" y="168"/>
      <point x="328" y="250"/>
      <point x="206" y="276" type="curve"/>
      <point x="216" y="239" type="line"/>
      <point x="310" y="255"/>
      <point x="365" y="309"/>
      <point x="365" y="381" type="curve" smooth="yes"/>
      <point x="365" y="534"/>
      <point x="186" y="572"/>
      <point x="49" y="561" type="curve"/>
      <point x="39" y="546" type="line"/>
      <point x="113" y="470" type="line"/>
      <point x="237" y="470"/>
      <point x="315" y="422"/>
      <point x="315" y="382" type="curve" smooth="yes"/>
      <point x="315" y="343"/>
      <point x="228" y="307"/>
      <point x="171" y="299" type="curve"/>
      <point x="82" y="309" type="line"/>
      <point x="72" y="294" type="line"/>
      <point x="147" y="217" type="line"/>
      <point x="256" y="207"/>
      <point x="326" y="162"/>
      <point x="326" y="118" type="curve" smooth="yes"/>
      <point x="326" y="58"/>
      <point x="189" y="28"/>
      <point x="38" y="70" type="curve"/>
      <point x="25" y="50" type="line"/>
      <point x="292" y="-263" type="line"/>
      <point x="313" y="-251" type="line"/>
    </contour>
  </outline>
</glyph>
<glyph name="uniE614" format="2">
  <advance width="651"/>
  <unicode hex="E614"/>
  <outline>
    <contour>
      <point x="109" y="255" type="curve" smooth="yes"/>
      <point x="109" y="369"/>
      <point x="200" y="467"/>
      <point x="337" y="467" type="curve" smooth="yes"/>
      <point x="448" y="467"/>
      <point x="542" y="400"/>
      <point x="542" y="296" type="curve" smooth="yes"/>
      <point x="542" y="189"/>
      <point x="450" y="85"/>
      <point x="313" y="85" type="curve" smooth="yes"/>
      <point x="202" y="85"/>
      <point x="109" y="151"/>
    </contour>
    <contour>
      <point x="60" y="280" type="curve" smooth="yes"/>
      <point x="60" y="132"/>
      <point x="147" y="-15"/>
      <point x="332" y="-15" type="curve" smooth="yes"/>
      <point x="493" y="-15"/>
      <point x="591" y="117"/>
      <point x="591" y="272" type="curve" smooth="yes"/>
      <point x="591" y="420"/>
      <point x="504" y="566"/>
      <point x="318" y="566" type="curve" smooth="yes"/>
      <point x="158" y="566"/>
      <point x="60" y="434"/>
    </contour>
    <contour>
      <point x="255" y="273" type="curve"/>
      <point x="306" y="209" type="line"/>
      <point x="322" y="209" type="line"/>
      <point x="344" y="233"/>
      <point x="369" y="255"/>
      <point x="395" y="273" type="curve"/>
      <point x="339" y="346" type="line"/>
      <point x="309" y="325"/>
      <point x="281" y="301"/>
    </contour>
  </outline>
</glyph>
<glyph name="uniE617" format="2">
  <advance width="550"/>
  <unicode hex="E617"/>
  <outline>
    <contour>
      <point x="159" y="-140" type="line"/>
      <point x="236" y="-208"/>
      <point x="320" y="-278"/>
      <point x="415" y="-350" type="curve"/>
      <point x="436" y="-337" type="line"/>
      <point x="444" y="-238" type="line"/>
      <point x="186" y="-80" type="line"/>
      <point x="167" y="-80" type="line"/>
    </contour>
    <contour>
      <point x="412" y="328" type="line"/>
      <point x="382" y="372"/>
      <point x="323" y="412"/>
      <point x="246" y="412" type="curve" smooth="yes"/>
      <point x="134" y="412"/>
      <point x="50" y="312"/>
      <point x="50" y="196" type="curve" smooth="yes"/>
      <point x="50" y="90"/>
      <point x="127" y="-15"/>
      <point x="267" y="-15" type="curve" smooth="yes"/>
      <point x="368" y="-15"/>
      <point x="492" y="52"/>
      <point x="495" y="209" type="curve" smooth="yes"/>
      <point x="498" y="385"/>
      <point x="374" y="548"/>
      <point x="218" y="680" type="curve"/>
      <point x="196" y="667" type="line"/>
      <point x="188" y="583" type="line"/>
      <point x="271" y="504"/>
      <point x="376" y="395"/>
      <point x="405" y="328" type="curve"/>
    </contour>
    <contour>
      <point x="99" y="183" type="curve" smooth="yes"/>
      <point x="99" y="262"/>
      <point x="170" y="321"/>
      <point x="282" y="321" type="curve" smooth="yes"/>
      <point x="370" y="321"/>
      <point x="440" y="285"/>
      <point x="440" y="216" type="curve" smooth="yes"/>
      <point x="440" y="141"/>
      <point x="363" y="78"/>
      <point x="254" y="78" type="curve" smooth="yes"/>
      <point x="163" y="78"/>
      <point x="99" y="114"/>
    </contour>
  </outline>
</glyph>
